<svg xmlns="http://www.w3.org/2000/svg" xmlns:xlink="http://www.w3.org/1999/xlink" width="137.207" height="46.769" viewBox="0 0 137.207 46.769">
  <defs>
    <clipPath id="clip-path">
      <rect id="Rect치ngulo_3" data-name="Rect치ngulo 3" width="74.904" height="45" fill="none"/>
    </clipPath>
    <clipPath id="clip-path-2">
      <rect id="Rect치ngulo_4" data-name="Rect치ngulo 4" width="57.98" height="46.769" fill="none"/>
    </clipPath>
  </defs>
  <g id="Grupo_9" data-name="Grupo 9" transform="translate(-140.793 124)">
    <g id="Grupo_4" data-name="Grupo 4" transform="translate(203.096 -123)">
      <g id="Grupo_3" data-name="Grupo 3" transform="translate(0 0)" clip-path="url(#clip-path)">
        <path id="Trazado_34" data-name="Trazado 34" d="M74.225,19.632l-.021-.045-.022-.045a7.947,7.947,0,0,0-1.836-2.332,6.507,6.507,0,0,0-1.31-.9,8.435,8.435,0,0,0,.452-1.266l0-.015,0-.015a10.629,10.629,0,0,0,.3-2.219,7.748,7.748,0,0,0-.012-.8l.043-.038a10.273,10.273,0,0,0,1.611-1.746,7.859,7.859,0,0,0,1.318-2.893l.021-.09.016-.091A6.706,6.706,0,0,0,74.7,4.269L74.682,4.2l-.021-.067a6.62,6.62,0,0,0-.469-1.117,5.086,5.086,0,0,0-1.1-1.392,5.709,5.709,0,0,0-1.5-.96,6.665,6.665,0,0,0-1.879-.5A5.8,5.8,0,0,0,69,.117a5.781,5.781,0,0,0-3.379,1.11A6.784,6.784,0,0,0,63.33.193,6.635,6.635,0,0,0,61.72,0q-.225,0-.457.014l-.114.007-.113.015a6.425,6.425,0,0,0-2.7.994,5.484,5.484,0,0,0-.943.8c-.188-.133-.381-.262-.585-.382a8.925,8.925,0,0,0-2.1-.874A10.808,10.808,0,0,0,52.2.2C52,.186,51.8.18,51.609.18a9.5,9.5,0,0,0-2.775.407l-.021.007L48.792.6a10.455,10.455,0,0,0-1.341.538,7.176,7.176,0,0,0-1.6,1.064,8.121,8.121,0,0,0-.8.82c-.083-.094-.157-.191-.246-.283a7.639,7.639,0,0,0-1.657-1.3,8.916,8.916,0,0,0-2.1-.874A10.8,10.8,0,0,0,38.532.2c-.2-.012-.394-.017-.588-.017A9.5,9.5,0,0,0,35.17.587l-.021.007L35.127.6a10.455,10.455,0,0,0-1.341.538,7.173,7.173,0,0,0-1.6,1.064,8.411,8.411,0,0,0-1.294,1.434c-.046.063-.086.131-.129.2l-.016-.023a8.453,8.453,0,0,0-2.008-2.115A8.616,8.616,0,0,0,26.869.655,6.272,6.272,0,0,0,25.077.212c-.407-.031-.53-.037-.653-.037s-.246.006-.654.037a6.263,6.263,0,0,0-1.788.441A8.4,8.4,0,0,0,20.108,1.7a7.739,7.739,0,0,0-1.427,1.368,6.581,6.581,0,0,0-1.742-1.829l-.012-.008-.012-.008a5.786,5.786,0,0,0-2.78-.97L14.014.25h-.121A5.806,5.806,0,0,0,11.655.67a5.949,5.949,0,0,0-1.215.679A5.938,5.938,0,0,0,9.256.691,5.808,5.808,0,0,0,7.014.268a5.388,5.388,0,0,0-3.34,1.127A5.81,5.81,0,0,0,2.615,2.456,6.646,6.646,0,0,0,1.95,3.513a8.454,8.454,0,0,0-.789,2.432A20.48,20.48,0,0,0,.922,8v.026C.879,8.665.855,9.432.849,10.3c-.008.914.043,1.969.15,3.135a8.53,8.53,0,0,0,.339,1.839A7.3,7.3,0,0,0,2,16.815,5.64,5.64,0,0,0,3.1,18.172a7.321,7.321,0,0,0,.921.707l.032.021.033.02a5.7,5.7,0,0,0,1.333.589c-.126.17-.252.345-.377.526-.527.767-1.068,1.625-1.607,2.552a24.614,24.614,0,0,0-1.6,3.354A26.7,26.7,0,0,0,.611,30.006a28.342,28.342,0,0,0-.6,4.829,13.6,13.6,0,0,0,.255,3.4,8.995,8.995,0,0,0,.467,1.6,8.719,8.719,0,0,0,.818,1.584A6.679,6.679,0,0,0,3.012,43a6.909,6.909,0,0,0,2.034,1.1l.018.006.018.006a9.931,9.931,0,0,0,2.37.478c.244.021.5.032.752.032A10.5,10.5,0,0,0,9.762,44.5a8,8,0,0,0,2.812-1,9.2,9.2,0,0,0,1.693-1.261,9.1,9.1,0,0,0,1.677,1.251A8.009,8.009,0,0,0,18.772,44.5a10.487,10.487,0,0,0,1.557.122c.255,0,.508-.011.752-.032a9.926,9.926,0,0,0,2.37-.478l.018-.006.018-.007A6.928,6.928,0,0,0,25.525,43a7.043,7.043,0,0,0,1.427-1.518c.1.144.2.292.314.429a8.769,8.769,0,0,0,2.607,2.154,6.811,6.811,0,0,0,3.377.835,9.376,9.376,0,0,0,1.288-.092,7.213,7.213,0,0,0,3.616-1.515,6.718,6.718,0,0,0,.652-.572A9.333,9.333,0,0,0,40.671,44.1a7.043,7.043,0,0,0,3.484.9c.072,0,.143,0,.215,0a6.978,6.978,0,0,0,4.207-1.707l.059-.047.056-.05a8.136,8.136,0,0,0,2.54-4.019l.015-.057.013-.057a8.512,8.512,0,0,0,.188-2.041,7.515,7.515,0,0,0-.565-2.6,10.762,10.762,0,0,0-1.44-2.476q-.234-.309-.5-.617c.038-.086.075-.174.112-.262l.017-.041.016-.042a13.228,13.228,0,0,0,.476-1.578,7.5,7.5,0,0,0,.65.391,8.8,8.8,0,0,0,1.874.733q.358.1.733.168c-.008.095-.015.189-.022.284V31c-.072,1.081-.09,2.282-.055,3.57a22.1,22.1,0,0,0,.48,4.042l0,.013,0,.013a7.549,7.549,0,0,0,4.7,5.727l.022.008.022.008a8.734,8.734,0,0,0,3.014.52l.231,0a7.739,7.739,0,0,0,3.118-.66l.039-.017.039-.018a8.449,8.449,0,0,0,2.373-1.746,7.482,7.482,0,0,0,1.868-3.785,18.923,18.923,0,0,0,.5-3.156l0-.016v-.016c.074-1.011.092-2.184.057-3.584-.013-.5-.043-1.029-.09-1.581q.247-.065.487-.144l.037-.012.037-.013a9.541,9.541,0,0,0,1.656-.776A6.834,6.834,0,0,0,73.169,27.8a7.6,7.6,0,0,0,1.23-2.184,8.869,8.869,0,0,0,.5-2.784l0-.049v-.049a7.354,7.354,0,0,0-.678-3.1" transform="translate(0 0)"/>
        <path id="Trazado_35" data-name="Trazado 35" d="M19.915,10.976q.02,1.243-.02,2.191-.059,1.105-.158,2.052a5.438,5.438,0,0,1-.493,1.737,3.438,3.438,0,0,1-.395.641,2.966,2.966,0,0,1-.563.553,2.537,2.537,0,0,1-.74.385,3.015,3.015,0,0,1-.947.138,2.54,2.54,0,0,1-1.836-.721,3.175,3.175,0,0,1-.563-.73,6.126,6.126,0,0,1-.385-.819,8.107,8.107,0,0,1-.434-2.231h-.73a7.853,7.853,0,0,1-.514,2.231,6.386,6.386,0,0,1-.425.819,3.209,3.209,0,0,1-.582.71,2.82,2.82,0,0,1-.79.5,2.54,2.54,0,0,1-1.026.2,2.9,2.9,0,0,1-1.461-.414,4.519,4.519,0,0,1-.562-.434,2.7,2.7,0,0,1-.523-.661,4.475,4.475,0,0,1-.4-.948A5.953,5.953,0,0,1,6.139,14.9q-.158-1.718-.148-3.03t.069-2.24a18.739,18.739,0,0,1,.218-1.875A5.692,5.692,0,0,1,6.81,6.1,3.774,3.774,0,0,1,7.2,5.489a2.879,2.879,0,0,1,.533-.533,2.5,2.5,0,0,1,.691-.375,2.535,2.535,0,0,1,.859-.138,2.8,2.8,0,0,1,1.954.71,2.794,2.794,0,0,1,.582.72,6.2,6.2,0,0,1,.385.819,6.627,6.627,0,0,1,.355,2.249h.75a6.926,6.926,0,0,1,.375-2.249,4.569,4.569,0,0,1,.375-.829,2.857,2.857,0,0,1,.592-.73,2.8,2.8,0,0,1,1.954-.71,2.907,2.907,0,0,1,1.4.493,3.9,3.9,0,0,1,1.056,1.174,5.5,5.5,0,0,1,.681,2.24q.158,1.4.178,2.645m14.33,3.167a5.769,5.769,0,0,1-.1,1.6,3.521,3.521,0,0,1-.187.641,3.037,3.037,0,0,1-.326.612,2.368,2.368,0,0,1-.484.513,2.312,2.312,0,0,1-.681.365,4.064,4.064,0,0,1-.987.2,4.021,4.021,0,0,1-.957-.039,2.941,2.941,0,0,1-1.036-.375,3.377,3.377,0,0,1-.938-.79,4.976,4.976,0,0,1-.582-.887,3.951,3.951,0,0,1-.306-.79,4.75,4.75,0,0,1-.109-.513,5.018,5.018,0,0,1-.109.513,3.951,3.951,0,0,1-.306.79,5.008,5.008,0,0,1-.583.887,3.368,3.368,0,0,1-.937.79,2.945,2.945,0,0,1-1.036.375,4.02,4.02,0,0,1-.957.039,4.064,4.064,0,0,1-.987-.2,2.305,2.305,0,0,1-.681-.365A2.159,2.159,0,0,1,21.486,17a3.371,3.371,0,0,1-.316-.612,3.524,3.524,0,0,1-.188-.641,6.3,6.3,0,0,1-.118-1.6,15.137,15.137,0,0,1,.316-2.576,14.038,14.038,0,0,1,.642-2.151A12.82,12.82,0,0,1,22.66,7.66q.454-.779.888-1.411a5.6,5.6,0,0,1,2.6-2.161,3.539,3.539,0,0,1,.967-.257q.384-.03.444-.029T28,3.831a3.551,3.551,0,0,1,.968.257,6,6,0,0,1,1.273.721,5.749,5.749,0,0,1,1.342,1.441q.434.632.878,1.411a13.717,13.717,0,0,1,.829,1.757,14.1,14.1,0,0,1,.642,2.151,15.136,15.136,0,0,1,.316,2.576M28.4,11.6a.919.919,0,0,0-.2-.572.679.679,0,0,0-.571-.256.783.783,0,0,0-.583.256.674.674,0,0,0-.207.572.78.78,0,0,0,.247.573.873.873,0,0,0,.543.158.792.792,0,0,0,.552-.2A.686.686,0,0,0,28.4,11.6m19.3-2.654a5.906,5.906,0,0,1-.2,1.885,4.365,4.365,0,0,1-.651,1.362,3.726,3.726,0,0,1-.957.918,5.036,5.036,0,0,1-1.115.553,7.337,7.337,0,0,1-3.059.375,6.189,6.189,0,0,1,.158,1.283,3.526,3.526,0,0,1-.119.967,2.307,2.307,0,0,1-.75,1.184,2.583,2.583,0,0,1-1.361.553,3.321,3.321,0,0,1-1.935-.3,4.02,4.02,0,0,1-1.223-.967,4.887,4.887,0,0,1-.829-1.5,11.868,11.868,0,0,1-.5-2.94,15.631,15.631,0,0,1,.089-2.487,14.227,14.227,0,0,1,.494-2.348,4.938,4.938,0,0,1,.661-1.332,5.666,5.666,0,0,1,.868-.967,4.349,4.349,0,0,1,.977-.651,7.824,7.824,0,0,1,1.006-.4,6.957,6.957,0,0,1,2.468-.276,8.266,8.266,0,0,1,1.944.276,6.178,6.178,0,0,1,1.46.6,4.841,4.841,0,0,1,1.056.819,5.812,5.812,0,0,1,.73.927,5.872,5.872,0,0,1,.79,2.468m-5.25.434a.921.921,0,0,0-.2-.572.68.68,0,0,0-.572-.257.782.782,0,0,0-.583.257.676.676,0,0,0-.207.572.777.777,0,0,0,.247.572.869.869,0,0,0,.543.158.79.79,0,0,0,.553-.2.683.683,0,0,0,.217-.532M60.8,8.769a5.905,5.905,0,0,1-.2,1.885,4.365,4.365,0,0,1-.651,1.362,3.726,3.726,0,0,1-.957.918,5.012,5.012,0,0,1-1.115.552,7.328,7.328,0,0,1-3.059.375,6.185,6.185,0,0,1,.158,1.283,3.527,3.527,0,0,1-.119.967,2.307,2.307,0,0,1-.75,1.184,2.583,2.583,0,0,1-1.361.553,3.324,3.324,0,0,1-1.935-.3,4.029,4.029,0,0,1-1.223-.968,4.879,4.879,0,0,1-.829-1.5,11.872,11.872,0,0,1-.5-2.94,15.631,15.631,0,0,1,.089-2.487,14.234,14.234,0,0,1,.494-2.349A4.934,4.934,0,0,1,49.5,5.977a5.627,5.627,0,0,1,.868-.967,4.358,4.358,0,0,1,.977-.652,7.893,7.893,0,0,1,1.006-.4,6.945,6.945,0,0,1,2.468-.277,8.292,8.292,0,0,1,1.944.277,6.2,6.2,0,0,1,1.46.6,4.858,4.858,0,0,1,1.056.819,5.761,5.761,0,0,1,.73.927,5.869,5.869,0,0,1,.79,2.468m-5.25.434a.916.916,0,0,0-.2-.572.679.679,0,0,0-.572-.257.78.78,0,0,0-.583.257.675.675,0,0,0-.207.572.777.777,0,0,0,.247.572.869.869,0,0,0,.543.158.79.79,0,0,0,.553-.2.683.683,0,0,0,.217-.533M75.37,5.8a3.729,3.729,0,0,0-.266-.632,2.139,2.139,0,0,0-.464-.582,2.79,2.79,0,0,0-.74-.464,3.84,3.84,0,0,0-1.076-.277,2.759,2.759,0,0,0-1.519.237A3.737,3.737,0,0,0,70.031,5.1a5.775,5.775,0,0,0-1.056,2.24,6.122,6.122,0,0,0-.947-1.895,4.8,4.8,0,0,0-.6-.681,3.928,3.928,0,0,0-.79-.573,4.088,4.088,0,0,0-1-.384,3.949,3.949,0,0,0-1.2-.1,3.563,3.563,0,0,0-1.52.553,2.556,2.556,0,0,0-.523.454,2.651,2.651,0,0,0-.424.661,3.331,3.331,0,0,0-.257.888,3.806,3.806,0,0,0,.02,1.155,4.073,4.073,0,0,0,.286,1.036,4.759,4.759,0,0,0,.5.9,6.052,6.052,0,0,0,.642.76,7.515,7.515,0,0,0,.7.622A8.225,8.225,0,0,0,65.7,11.815a9.97,9.97,0,0,0-.217,2.033q0,.415.04.878a5.4,5.4,0,0,0,.158.918,4.411,4.411,0,0,0,.326.868,3.535,3.535,0,0,0,.523.77,2.38,2.38,0,0,0,.593.454,3.335,3.335,0,0,0,.76.316,3.883,3.883,0,0,0,1.1.138,3.151,3.151,0,0,0,1.342-.267,2.669,2.669,0,0,0,1.026-.9,5.269,5.269,0,0,0,.612-1.441,8.125,8.125,0,0,0,.217-1.678,6.588,6.588,0,0,0-.355-2.231,7.487,7.487,0,0,0,1.539-1.026,7.632,7.632,0,0,0,1.2-1.313,5.1,5.1,0,0,0,.849-1.885A3.874,3.874,0,0,0,75.37,5.8" transform="translate(-2.951 -1.804)" fill="#ff8dc0"/>
        <path id="Trazado_36" data-name="Trazado 36" d="M24.779,58.221A7.332,7.332,0,0,1,23,58.576a7.24,7.24,0,0,1-1.723-.071,5.293,5.293,0,0,1-1.866-.675,6.051,6.051,0,0,1-1.688-1.422,8.93,8.93,0,0,1-1.049-1.6,7.071,7.071,0,0,1-.551-1.422,8.662,8.662,0,0,1-.2-.923,8.969,8.969,0,0,1-.2.923,7.1,7.1,0,0,1-.551,1.422,9.014,9.014,0,0,1-1.049,1.6,6.066,6.066,0,0,1-1.688,1.422,5.3,5.3,0,0,1-1.866.675,7.247,7.247,0,0,1-1.724.071,7.337,7.337,0,0,1-1.776-.355,4.148,4.148,0,0,1-1.226-.658A3.886,3.886,0,0,1,5,56.64a6.023,6.023,0,0,1-.569-1.1A6.418,6.418,0,0,1,4.1,54.384,11.376,11.376,0,0,1,3.883,51.5a27.167,27.167,0,0,1,.568-4.637,25.441,25.441,0,0,1,1.156-3.875,23.1,23.1,0,0,1,1.51-3.163q.817-1.4,1.6-2.541A10.086,10.086,0,0,1,13.389,33.4a6.4,6.4,0,0,1,1.741-.462q.693-.053.8-.053t.8.053a6.409,6.409,0,0,1,1.741.462,10.843,10.843,0,0,1,2.292,1.3,10.336,10.336,0,0,1,2.416,2.594q.781,1.138,1.581,2.541a24.573,24.573,0,0,1,1.493,3.163,25.387,25.387,0,0,1,1.154,3.875,27.064,27.064,0,0,1,.569,4.637,10.427,10.427,0,0,1-.178,2.879,6.454,6.454,0,0,1-.337,1.155,5.523,5.523,0,0,1-.587,1.1,4.268,4.268,0,0,1-.871.924,4.157,4.157,0,0,1-1.226.658M16.073,45.428a1.408,1.408,0,0,0-1.048.462,1.216,1.216,0,0,0-.373,1.031,1.406,1.406,0,0,0,.444,1.031,1.57,1.57,0,0,0,.977.284,1.426,1.426,0,0,0,.995-.355,1.234,1.234,0,0,0,.392-.96A1.652,1.652,0,0,0,17.1,45.89a1.224,1.224,0,0,0-1.03-.462" transform="translate(-1.906 -16.198)" fill="#ff8dc0"/>
        <path id="Trazado_37" data-name="Trazado 37" d="M73.442,40.008a9.929,9.929,0,0,1,.106,3.411,13.49,13.49,0,0,1-.639,2.523,8.548,8.548,0,0,1-1.209,2.1,13.947,13.947,0,0,1,2.043,2.114,8.378,8.378,0,0,1,1.119,1.9,4.773,4.773,0,0,1,.373,1.652,5.9,5.9,0,0,1-.124,1.4,5.5,5.5,0,0,1-1.741,2.7,4.023,4.023,0,0,1-4.816.55,6.985,6.985,0,0,1-1.9-1.581,17.2,17.2,0,0,1-1.475-1.972,15.335,15.335,0,0,1-.978-1.741q-.355-.765-.391-.871a8.2,8.2,0,0,1,.089,2.043,7.064,7.064,0,0,1-.32,1.581,3.947,3.947,0,0,1-.6,1.155,4.243,4.243,0,0,1-.8.8,4.5,4.5,0,0,1-2.31.959,4.615,4.615,0,0,1-2.95-.409,6.115,6.115,0,0,1-1.847-1.51,6.463,6.463,0,0,1-1.208-2.345,25.167,25.167,0,0,1-1.067-5.7,30.773,30.773,0,0,1,.036-4.5,19.833,19.833,0,0,1,.781-4.016,9.074,9.074,0,0,1,1-2.523,9.225,9.225,0,0,1,1.44-1.847,8.06,8.06,0,0,1,1.688-1.28,10.162,10.162,0,0,1,1.741-.781,11.883,11.883,0,0,1,4.336-.569,11.956,11.956,0,0,1,2.808.3,10.864,10.864,0,0,1,2.221.782,9.137,9.137,0,0,1,1.706,1.066,7.565,7.565,0,0,1,1.226,1.226,8.853,8.853,0,0,1,1.67,3.376M64.4,42.46a1.409,1.409,0,0,0-1.049.462,1.219,1.219,0,0,0-.373,1.031,1.407,1.407,0,0,0,.444,1.031,1.571,1.571,0,0,0,.978.284,1.422,1.422,0,0,0,.995-.355,1.235,1.235,0,0,0,.391-.96,1.654,1.654,0,0,0-.356-1.031,1.224,1.224,0,0,0-1.03-.462" transform="translate(-25.974 -16.374)" fill="#ff8dc0"/>
        <path id="Trazado_38" data-name="Trazado 38" d="M103.03,43.922a11.055,11.055,0,0,1-3.624-.284,6.147,6.147,0,0,1-1.315-.516,4.754,4.754,0,0,1-1.155-.853,3.723,3.723,0,0,1-.817-1.261,4.72,4.72,0,0,1-.3-1.776,4.873,4.873,0,0,1,.729-2.826,5.385,5.385,0,0,1,1.617-1.582,6.313,6.313,0,0,1,2.345-.852,31.712,31.712,0,0,1,5.544-.693q2.7-.088,4.869.054a43.793,43.793,0,0,1,4.8.533,5.389,5.389,0,0,1,2.47,1.1,5.254,5.254,0,0,1,1.226,1.529,4.605,4.605,0,0,1,.427,1.954A6.245,6.245,0,0,1,119.5,40.4a4.851,4.851,0,0,1-.782,1.4,4.045,4.045,0,0,1-1.083.942,6.938,6.938,0,0,1-1.209.569,8.312,8.312,0,0,1-3.234.32,33.986,33.986,0,0,1,.515,4.78q.053,2.079-.053,3.536a17.126,17.126,0,0,1-.462,2.914,5.019,5.019,0,0,1-1.155,2.523,5.812,5.812,0,0,1-1.617,1.208,5.02,5.02,0,0,1-2.061.426,6.166,6.166,0,0,1-2.31-.355,5.152,5.152,0,0,1-1.777-1.208,5.222,5.222,0,0,1-1.244-2.594,20.394,20.394,0,0,1-.444-3.749q-.053-1.936.053-3.537.141-1.882.391-3.66" transform="translate(-47.198 -16.376)" fill="#ff8dc0"/>
        <path id="Trazado_39" data-name="Trazado 39" d="M14.446,9.691a.254.254,0,0,1-.253-.239c-.166-2.813-2.169-2.884-2.254-2.886a.254.254,0,0,1-.249-.259.248.248,0,0,1,.259-.249c.025,0,2.557.088,2.751,3.364a.254.254,0,0,1-.238.268h-.015" transform="translate(-5.758 -2.985)" fill="#fff"/>
        <path id="Trazado_40" data-name="Trazado 40" d="M28.724,9.691a.254.254,0,0,1-.253-.239c-.166-2.813-2.169-2.884-2.254-2.886a.254.254,0,0,1,0-.507h.005c.025,0,2.557.088,2.751,3.364a.254.254,0,0,1-.238.268h-.015" transform="translate(-12.791 -2.985)" fill="#fff"/>
        <path id="Trazado_41" data-name="Trazado 41" d="M81.207,8.713a.253.253,0,0,1-.229-.144,3.89,3.89,0,0,0-3.362-2.307h0a.254.254,0,0,1,0-.507A4.43,4.43,0,0,1,81.436,8.35a.254.254,0,0,1-.229.363" transform="translate(-38.105 -2.835)" fill="#fff"/>
        <path id="Trazado_42" data-name="Trazado 42" d="M135.4,38.948a.507.507,0,0,1-.458-.288,3.761,3.761,0,0,0-3.233-2.23.507.507,0,0,1-.007-1.015,4.743,4.743,0,0,1,4.155,2.806.507.507,0,0,1-.238.677.5.5,0,0,1-.219.05" transform="translate(-64.626 -17.445)" fill="#fff"/>
        <path id="Trazado_43" data-name="Trazado 43" d="M91.918,70.137a.508.508,0,0,1-.491-.378,6.626,6.626,0,0,0-2.569-3.619.507.507,0,0,1,.537-.861A7.543,7.543,0,0,1,92.41,69.5a.508.508,0,0,1-.362.62.52.52,0,0,1-.129.017" transform="translate(-43.654 -32.118)" fill="#fff"/>
        <path id="Trazado_44" data-name="Trazado 44" d="M107.448,8.1a.254.254,0,0,1-.231-.148,3.808,3.808,0,0,0-3.052-2.41.254.254,0,0,1-.245-.262.267.267,0,0,1,.262-.245,4.263,4.263,0,0,1,3.5,2.706.254.254,0,0,1-.125.336.251.251,0,0,1-.106.023" transform="translate(-51.19 -2.479)" fill="#fff"/>
        <path id="Trazado_45" data-name="Trazado 45" d="M125.053,8.1a.253.253,0,0,1-.236-.161c-1.04-2.66-2.745-2.529-2.818-2.525a.254.254,0,0,1-.052-.5c.088-.009,2.155-.194,3.343,2.845a.254.254,0,0,1-.236.346" transform="translate(-59.958 -2.416)" fill="#fff"/>
        <path id="Trazado_46" data-name="Trazado 46" d="M139.076,7.764a.254.254,0,0,1-.254-.254c0-2.3-1.678-2.339-1.75-2.34a.254.254,0,0,1,0-.507,2.282,2.282,0,0,1,1.139.364A2.725,2.725,0,0,1,139.33,7.51a.254.254,0,0,1-.254.254" transform="translate(-67.396 -2.297)" fill="#fff"/>
        <path id="Trazado_47" data-name="Trazado 47" d="M52.491,8.723a.254.254,0,0,1-.234-.156c-1.086-2.614-2.935-2.959-3.013-2.972a.254.254,0,0,1,.083-.5c.089.014,2.2.389,3.4,3.277a.254.254,0,0,1-.137.332.264.264,0,0,1-.1.019" transform="translate(-24.153 -2.507)" fill="#fff"/>
        <path id="Trazado_48" data-name="Trazado 48" d="M35.895,42.559a.507.507,0,0,1-.469-.313c-2.172-5.225-5.867-5.914-6.024-5.941a.508.508,0,0,1,.165-1c.178.029,4.395.779,6.8,6.553a.507.507,0,0,1-.468.7" transform="translate(-14.275 -17.387)" fill="#fff"/>
        <path id="Trazado_49" data-name="Trazado 49" d="M83.9,42.347a.508.508,0,0,1-.489-.373c-1.427-5.195-5.7-5.533-5.876-5.545a.507.507,0,0,1,.061-1.013,8.053,8.053,0,0,1,6.793,6.288.507.507,0,0,1-.355.624.514.514,0,0,1-.134.018" transform="translate(-37.959 -17.446)" fill="#fff"/>
      </g>
    </g>
    <g id="Grupo_6" data-name="Grupo 6" transform="translate(140.793 -124)">
      <g id="Grupo_5" data-name="Grupo 5" clip-path="url(#clip-path-2)">
        <path id="Trazado_50" data-name="Trazado 50" d="M38.569,43.7c-3.656.967-6.213.421-9.865.4-3.862,1.688-7.283-.038-10.911-1a4.459,4.459,0,0,0,1.59,1.269,1.122,1.122,0,0,1-.543,2.163,11.493,11.493,0,0,1-7.407-3.244,13.793,13.793,0,0,1-3.052-4.4.6.6,0,0,0-.439-.376,5.586,5.586,0,0,1-4.095-3.586,4.954,4.954,0,0,1,1.464-5.491.626.626,0,0,0,.255-.6,36.46,36.46,0,0,1-.075-5.824,1.541,1.541,0,0,0-.181-.809,68.45,68.45,0,0,1-4.128-9.8A24.971,24.971,0,0,1,.049,7.23,8.014,8.014,0,0,1,.26,4.265,4.54,4.54,0,0,1,3.993.951,16.394,16.394,0,0,1,9.462.833,53.58,53.58,0,0,1,18.8,2.907a.8.8,0,0,0,.5,0,31.539,31.539,0,0,1,9.007-1.386,32.425,32.425,0,0,1,8.6.839,3.122,3.122,0,0,0,1.78-.051,55.361,55.361,0,0,1,8.646-2,19.612,19.612,0,0,1,6.205-.1,5.614,5.614,0,0,1,3.223,1.586,5.027,5.027,0,0,1,1.212,3.582,19.816,19.816,0,0,1-1.269,6.632,72.831,72.831,0,0,1-4.286,9.822,1.05,1.05,0,0,0-.136.558,39.563,39.563,0,0,1-.163,7.036.373.373,0,0,0,.146.382c2.93,2.352,2.432,7.02-1.4,8.823a5.666,5.666,0,0,1-1.617.492.521.521,0,0,0-.444.358A12.67,12.67,0,0,1,43.461,45.3a10.4,10.4,0,0,1-5.156,1.465,1.113,1.113,0,0,1-.478-2.149c.7-.332.191-.249.741-.921" transform="translate(0 0)"/>
        <path id="Trazado_51" data-name="Trazado 51" d="M40.445,7.991a27.233,27.233,0,0,1,9.292,1.437A16.455,16.455,0,0,1,60.663,21.7a22.323,22.323,0,0,1,.633,5.335c0,.279-.047.351-.351.291q-5.393-1.065-10.86-1.644a109.968,109.968,0,0,0-14.555-.588A81.974,81.974,0,0,0,19.329,27c-.492.114-.513.116-.511-.356A18.324,18.324,0,0,1,22.949,14.4a16.891,16.891,0,0,1,8.076-5.135,30.9,30.9,0,0,1,9.42-1.277" transform="translate(-11.066 -4.699)" fill="#ff8dc0"/>
        <path id="Trazado_52" data-name="Trazado 52" d="M112.456,5.168a2.4,2.4,0,0,1,.315.6,5.359,5.359,0,0,1,.344,2.28,18.855,18.855,0,0,1-1.024,5.119A62.385,62.385,0,0,1,108.3,22.2c-.026.052-.06.1-.132.221-.118-.943-.221-1.812-.4-2.669a18.977,18.977,0,0,0-4.84-9.579,17.9,17.9,0,0,0-6.188-4.124.606.606,0,0,1-.344-.2,50.091,50.091,0,0,1,9.877-2,12.187,12.187,0,0,1,4.324.275,3.738,3.738,0,0,1,1.532.78" transform="translate(-56.692 -2.227)" fill="#ff8dc0"/>
        <path id="Trazado_53" data-name="Trazado 53" d="M3.847,5.767a2.4,2.4,0,0,0-.315.6,5.359,5.359,0,0,0-.344,2.28,18.855,18.855,0,0,0,1.024,5.119A62.384,62.384,0,0,0,8,22.8c.026.052.06.1.132.221.118-.943.221-1.812.4-2.669a18.977,18.977,0,0,1,4.84-9.579A17.9,17.9,0,0,1,19.558,6.65a.606.606,0,0,0,.344-.2,50.091,50.091,0,0,0-9.877-2A12.187,12.187,0,0,0,5.7,4.731a3.738,3.738,0,0,0-1.532.78" transform="translate(-1.872 -2.58)" fill="#ff8dc0"/>
        <path id="Trazado_54" data-name="Trazado 54" d="M121.75,76.79a4,4,0,0,1-3.173,3.847c-.25.059-.508.089-.762.135-.192.035-.275.016-.191-.222a18.627,18.627,0,0,0,.858-3.426c.034-.224.146-.3.365-.321a1.486,1.486,0,0,1,.947.24c.134.086.251.2.38.291.185.133.383.37.611.18.209-.175.07-.438-.019-.651A1.582,1.582,0,0,0,119,75.851c-.324.053-.341-.055-.3-.31a16.51,16.51,0,0,0,.144-1.986c0-.214.072-.243.264-.189a3.787,3.787,0,0,1,2.65,3.425" transform="translate(-69.153 -43.13)" fill="#f7d5c9"/>
        <path id="Trazado_55" data-name="Trazado 55" d="M14.966,72.3a23.063,23.063,0,0,0,.152,2.448c.025.19-.027.245-.227.262a1.663,1.663,0,0,0-1.431,1.252c-.039.157-.081.331.079.439s.312.011.44-.084a2.972,2.972,0,0,1,1-.606c.188-.049.278-.043.316.194a19,19,0,0,0,.758,3.187c.065.189.028.252-.174.212A4.068,4.068,0,0,1,12.7,77.183a3.334,3.334,0,0,1,.443-3.579,4.12,4.12,0,0,1,1.818-1.3" transform="translate(-7.28 -42.52)" fill="#f7d5c9"/>
        <path id="Trazado_56" data-name="Trazado 56" d="M34.127,62.727s-.29,8.534,1.046,9.746,4.235,2.781,15.317,2.594,11.744-2.3,12.181-2.857,1.278-9.1.877-9.483-5.672.122-7-.19-5.221-5.168-5.581-5.757-.875,6.075-2.3,6.6A22.3,22.3,0,0,1,44.344,64.6c-.626,0-1.873-7.853-1.873-7.853s-1.182,7.834-1.106,8.308-5.245,1.532-5.516.861-1.723-3.186-1.723-3.186" transform="translate(-20.054 -33.37)" fill="#f7d5c9"/>
        <path id="Trazado_57" data-name="Trazado 57" d="M93.644,83.181c0,1.121-1.38,2.03-3.083,2.03s-3.083-.909-3.083-2.03,1.38-2.03,3.083-2.03,3.083.909,3.083,2.03" transform="translate(-51.444 -47.723)" fill="#f68180"/>
        <path id="Trazado_58" data-name="Trazado 58" d="M43.534,83.181c0,1.121-1.38,2.03-3.083,2.03s-3.083-.909-3.083-2.03,1.38-2.03,3.083-2.03,3.083.909,3.083,2.03" transform="translate(-21.975 -47.723)" fill="#f68180"/>
        <path id="Trazado_59" data-name="Trazado 59" d="M80.443,78.289a7.746,7.746,0,0,1-1.733.1c-1.005-.042-1.617-.279-1.28-.5.379-.251.792-.5,1.19-.75A22.125,22.125,0,0,0,80.6,75.874a3.607,3.607,0,0,1,1.59-.271,4.877,4.877,0,0,1,1.823.236q1.961.956,3.913,1.914c.454.223.08.445-.876.536a5.379,5.379,0,0,1-2.411-.221c-.61-.29-1.2-.581-1.806-.871a.67.67,0,0,0-.3-.108c-.535.328-1.073.655-1.594.982a2.06,2.06,0,0,1-.5.218" transform="translate(-45.48 -44.459)" fill="#1d1d1b"/>
        <path id="Trazado_60" data-name="Trazado 60" d="M41.525,78.327a7.745,7.745,0,0,1-1.733.1c-1.005-.042-1.617-.279-1.28-.5.379-.251.67-.432,1.068-.681a12,12,0,0,0,2.6-.474c.286-.1,1.613-.076,1.765-1.1a1.757,1.757,0,0,1,1.15.208q1.961.956,3.913,1.914c.454.223.08.445-.876.536a5.379,5.379,0,0,1-2.411-.221c-.61-.29-1.2-.581-1.806-.871a.67.67,0,0,0-.3-.108c-.535.328-1.073.655-1.594.982a2.06,2.06,0,0,1-.5.218" transform="translate(-22.593 -44.498)" fill="#1d1d1b"/>
      </g>
    </g>
  </g>
</svg>
