<?xml version="1.0" encoding="UTF-8"?>
<svg xmlns="http://www.w3.org/2000/svg" version="1.1" xmlns:xlink="http://www.w3.org/1999/xlink" viewBox="0 0 260.7 156.1">
  <defs>
    <style>
      .cls-1 {
        opacity: .2;
      }

      .cls-2 {
        fill: none;
      }

      .cls-3 {
        fill: #f7d5c9;
      }

      .cls-4 {
        fill: #ff8dc0;
      }

      .cls-5 {
        fill: #1d1d1b;
      }

      .cls-6 {
        fill: #f68180;
      }

      .cls-7 {
        clip-path: url(#clippath);
      }
    </style>
    <clipPath id="clippath">
      <rect class="cls-2" x="101.4" y="54.7" width="58" height="46.8"/>
    </clipPath>
  </defs>
  <!-- Generator: Adobe Illustrator 28.7.2, SVG Export Plug-In . SVG Version: 1.2.0 Build 154)  -->
  <g>
    <g id="Capa_1">
      <g>
        <rect class="cls-2" width="260.7" height="156.1"/>
        <g class="cls-1">
          <g class="cls-7">
            <g id="Grupo_5">
              <path id="Trazado_50" d="M139.9,98.4c-3.7,1-6.2.4-9.9.4-3.9,1.7-7.3,0-10.9-1,.4.5,1,1,1.6,1.3.6.2.9.9.7,1.4-.2.5-.7.8-1.2.7-2.8-.1-5.4-1.3-7.4-3.2-1.3-1.3-2.3-2.7-3.1-4.4,0-.2-.2-.3-.4-.4-1.9-.4-3.4-1.8-4.1-3.6-.7-2-.1-4.2,1.5-5.5.2-.1.3-.4.3-.6-.2-1.9-.2-3.9,0-5.8,0-.3,0-.6-.2-.8-1.6-3.2-3-6.4-4.1-9.8-.6-1.7-.9-3.4-1.1-5.2-.1-1,0-2,.2-3,.5-1.8,1.9-3.1,3.7-3.3,1.8-.3,3.7-.4,5.5-.1,3.2.4,6.3,1.1,9.3,2.1.2,0,.3,0,.5,0,2.9-.9,6-1.4,9-1.4,2.9-.1,5.8.2,8.6.8.6.2,1.2.1,1.8,0,2.8-.9,5.7-1.6,8.6-2,2-.4,4.1-.4,6.2,0,1.2.2,2.4.7,3.2,1.6.9,1,1.3,2.3,1.2,3.6,0,2.3-.5,4.5-1.3,6.6-1.2,3.4-2.6,6.7-4.3,9.8,0,.2-.1.4-.1.6.2,2.3.1,4.7-.2,7,0,.1,0,.3.1.4,2.9,2.4,2.4,7-1.4,8.8-.5.2-1.1.4-1.6.5-.2,0-.4.2-.4.4-1.1,2.5-3,4.5-5.3,5.8-1.6.9-3.3,1.4-5.2,1.5-.6,0-1.1-.4-1.2-1,0-.5.3-.9.7-1.1.7-.3.2-.2.7-.9"/>
              <path id="Trazado_51" class="cls-4" d="M130.7,58c3.2,0,6.3.4,9.3,1.4,5.6,1.8,9.7,6.5,10.9,12.3.4,1.7.6,3.5.6,5.3,0,.3,0,.4-.4.3-3.6-.7-7.2-1.3-10.9-1.6-4.8-.5-9.7-.7-14.6-.6-5.5,0-10.9.7-16.2,1.9-.5.1-.5.1-.5-.4-.2-4.4,1.3-8.8,4.1-12.2,2.1-2.5,4.9-4.2,8.1-5.1,3.1-.9,6.2-1.3,9.4-1.3"/>
              <path id="Trazado_52" class="cls-4" d="M157.1,57.6c.1.2.2.4.3.6.3.7.4,1.5.3,2.3-.1,1.7-.4,3.5-1,5.1-1,3.1-2.3,6.1-3.8,9,0,0,0,.1-.1.2-.1-.9-.2-1.8-.4-2.7-.7-3.6-2.3-6.9-4.8-9.6-1.8-1.8-3.9-3.2-6.2-4.1-.1,0-.3,0-.3-.2,3.2-1,6.5-1.7,9.9-2,1.4-.2,2.9,0,4.3.3.6.1,1.1.4,1.5.8"/>
              <path id="Trazado_53" class="cls-4" d="M103.3,57.9c-.1.2-.2.4-.3.6-.3.7-.4,1.5-.3,2.3.1,1.7.4,3.5,1,5.1,1,3.1,2.3,6.1,3.8,9,0,0,0,.1.1.2.1-.9.2-1.8.4-2.7.7-3.6,2.3-6.9,4.8-9.6,1.8-1.8,3.9-3.2,6.2-4.1.1,0,.3,0,.3-.2-3.2-1-6.5-1.7-9.9-2-1.4-.2-2.9,0-4.3.3-.6.1-1.1.4-1.5.8"/>
              <path id="Trazado_54" class="cls-3" d="M154,88.3c0,1.9-1.3,3.5-3.2,3.8-.2,0-.5,0-.8.1-.2,0-.3,0-.2-.2.4-1.1.7-2.3.9-3.4,0-.2.1-.3.4-.3.3,0,.7,0,.9.2.1,0,.3.2.4.3.2.1.4.4.6.2.2-.2,0-.4,0-.7-.3-.7-1-1.1-1.8-1-.3,0-.3,0-.3-.3,0-.7.1-1.3.1-2,0-.2,0-.2.3-.2,1.5.5,2.6,1.8,2.7,3.4"/>
              <path id="Trazado_55" class="cls-3" d="M109,84.5c0,.8,0,1.6.2,2.4,0,.2,0,.2-.2.3-.7,0-1.3.6-1.4,1.3,0,.2,0,.3,0,.4s.3,0,.4,0c.3-.3.6-.5,1-.6.2,0,.3,0,.3.2.2,1.1.4,2.1.8,3.2,0,.2,0,.3-.2.2-1.4-.2-2.6-1.1-3.2-2.4-.6-1.2-.4-2.6.4-3.6.5-.6,1.1-1,1.8-1.3"/>
              <path id="Trazado_56" class="cls-3" d="M115.4,84s-.3,8.5,1,9.7,4.2,2.8,15.3,2.6,11.7-2.3,12.2-2.9,1.3-9.1.9-9.5-5.7.1-7-.2-5.2-5.2-5.6-5.8-.9,6.1-2.3,6.6c-1.4.6-2.8,1-4.3,1.2-.6,0-1.9-7.9-1.9-7.9,0,0-1.2,7.8-1.1,8.3s-5.2,1.5-5.5.9-1.7-3.2-1.7-3.2"/>
              <path id="Trazado_57" class="cls-6" d="M143.6,90.1c0,1.1-1.4,2-3.1,2s-3.1-.9-3.1-2,1.4-2,3.1-2,3.1.9,3.1,2"/>
              <path id="Trazado_58" class="cls-6" d="M122.9,90.1c0,1.1-1.4,2-3.1,2s-3.1-.9-3.1-2,1.4-2,3.1-2,3.1.9,3.1,2"/>
              <path id="Trazado_59" class="cls-5" d="M136.3,88.5c-.6,0-1.2.1-1.7,0-1,0-1.6-.3-1.3-.5.4-.3.8-.5,1.2-.8.7-.4,1.3-.8,2-1.3.5-.2,1-.3,1.6-.3.6,0,1.2,0,1.8.2,1.3.6,2.6,1.3,3.9,1.9.5.2,0,.4-.9.5-.8.1-1.6,0-2.4-.2-.6-.3-1.2-.6-1.8-.9,0,0-.2,0-.3-.1-.5.3-1.1.7-1.6,1-.2,0-.3.2-.5.2"/>
              <path id="Trazado_60" class="cls-5" d="M120.3,88.5c-.6,0-1.2.1-1.7,0-1,0-1.6-.3-1.3-.5.4-.3.7-.4,1.1-.7.9,0,1.8-.2,2.6-.5.3,0,1.6,0,1.8-1.1.4,0,.8,0,1.2.2,1.3.6,2.6,1.3,3.9,1.9.5.2,0,.4-.9.5-.8.1-1.6,0-2.4-.2-.6-.3-1.2-.6-1.8-.9,0,0-.2,0-.3-.1-.5.3-1.1.7-1.6,1-.2,0-.3.2-.5.2"/>
            </g>
          </g>
        </g>
      </g>
    </g>
  </g>
</svg>