<svg xmlns="http://www.w3.org/2000/svg" xmlns:xlink="http://www.w3.org/1999/xlink" width="197.608" height="278.001" viewBox="0 0 197.608 278.001">
  <defs>
    <clipPath id="clip-path">
      <rect id="Rectángulo_1" data-name="Rectángulo 1" width="197.608" height="278.001" fill="none"/>
    </clipPath>
  </defs>
  <g id="Grupo_7" data-name="Grupo 7" transform="translate(-861.204 -115.709)">
    <g id="Grupo_2" data-name="Grupo 2" transform="translate(861.204 115.709)">
      <g id="Grupo_1" data-name="Grupo 1" clip-path="url(#clip-path)">
        <path id="Trazado_1" data-name="Trazado 1" d="M195.818,188.166l-.055-.119-.058-.118a20.955,20.955,0,0,0-4.844-6.152,17.128,17.128,0,0,0-3.456-2.371,22.365,22.365,0,0,0,1.192-3.34l.011-.039.009-.039a27.966,27.966,0,0,0,.789-5.855,20.231,20.231,0,0,0-.031-2.118l.115-.1a27.135,27.135,0,0,0,4.248-4.608,20.751,20.751,0,0,0,3.478-7.631l.055-.237.042-.241a17.67,17.67,0,0,0-.244-7.564l-.049-.181-.055-.179a17.366,17.366,0,0,0-1.237-2.948,13.425,13.425,0,0,0-2.891-3.673,15.061,15.061,0,0,0-3.964-2.532,17.669,17.669,0,0,0-4.957-1.324,15.419,15.419,0,0,0-1.892-.118,15.253,15.253,0,0,0-8.914,2.929,18.7,18.7,0,0,0-1.592-.995,18.371,18.371,0,0,0-4.444-1.734,17.516,17.516,0,0,0-4.248-.51q-.593,0-1.207.038l-.3.019-.3.041a17.453,17.453,0,0,0-4.622,1.3,46.231,46.231,0,0,0,4.872-8.074,1.718,1.718,0,0,1,1.462-1.175,18.56,18.56,0,0,0,5.31-1.615c12.582-5.922,14.219-21.261,4.592-28.986a1.226,1.226,0,0,1-.48-1.256,129.855,129.855,0,0,0,.537-23.118,3.456,3.456,0,0,1,.444-1.835,239.017,239.017,0,0,0,14.08-32.269c2.4-7.062,4.259-14.252,4.17-21.787-.051-4.331-.876-8.491-3.983-11.769A18.448,18.448,0,0,0,176.816.678c-6.81-1.2-13.616-.636-20.388.333a181.8,181.8,0,0,0-28.405,6.568,10.251,10.251,0,0,1-5.846.168A106.539,106.539,0,0,0,93.919,4.989,103.611,103.611,0,0,0,64.328,9.543a2.607,2.607,0,0,1-1.647.008A175.862,175.862,0,0,0,31.988,2.737a53.834,53.834,0,0,0-17.97.387C7.912,4.453,3.519,7.78,1.757,14.014a26.323,26.323,0,0,0-.7,9.741,82.05,82.05,0,0,0,3.724,17A225.091,225.091,0,0,0,18.343,72.966a5.044,5.044,0,0,1,.6,2.657,119.645,119.645,0,0,0,.249,19.135,2.052,2.052,0,0,1-.838,1.954,16.272,16.272,0,0,0-4.812,18.041c2.261,6.435,7.094,10.007,13.451,11.782a1.984,1.984,0,0,1,1.443,1.237,49.277,49.277,0,0,0,5.578,9.476,14.274,14.274,0,0,0-3.262.893,15.72,15.72,0,0,0-3.2,1.792,15.665,15.665,0,0,0-3.125-1.738A15.315,15.315,0,0,0,18.5,137.08a14.214,14.214,0,0,0-8.813,2.972,15.276,15.276,0,0,0-2.792,2.8,17.577,17.577,0,0,0-1.754,2.788,22.323,22.323,0,0,0-2.081,6.415,54,54,0,0,0-.631,5.424l0,.034,0,.034c-.108,1.686-.172,3.708-.187,6.01-.02,2.412.114,5.2.4,8.273a22.461,22.461,0,0,0,.9,4.852,19.292,19.292,0,0,0,1.753,4.052,14.856,14.856,0,0,0,2.881,3.578,19.219,19.219,0,0,0,2.429,1.865l.085.055.088.051a14.986,14.986,0,0,0,3.515,1.554c-.33.449-.663.911-.992,1.389-1.389,2.023-2.815,4.287-4.24,6.733a65.021,65.021,0,0,0-4.233,8.849,70.478,70.478,0,0,0-3.206,10.727A74.855,74.855,0,0,0,.042,228.273a35.937,35.937,0,0,0,.671,8.978,24.03,24.03,0,0,0,1.233,4.209,23.1,23.1,0,0,0,2.161,4.178,17.567,17.567,0,0,0,3.839,4.175,18.252,18.252,0,0,0,5.366,2.908l.047.016.049.016a26.1,26.1,0,0,0,6.25,1.26c.646.057,1.311.085,1.984.085a27.76,27.76,0,0,0,4.11-.321,21.124,21.124,0,0,0,7.416-2.647,24.218,24.218,0,0,0,4.467-3.327,24.1,24.1,0,0,0,4.424,3.3,21.185,21.185,0,0,0,7.464,2.673,27.715,27.715,0,0,0,4.109.321c.673,0,1.34-.028,1.985-.085a26.124,26.124,0,0,0,6.251-1.26l.047-.016.049-.018a18.275,18.275,0,0,0,5.375-2.915,18.638,18.638,0,0,0,3.764-4c.272.38.533.77.83,1.133a23.118,23.118,0,0,0,6.876,5.681,17.965,17.965,0,0,0,8.908,2.2,24.662,24.662,0,0,0,3.4-.245,19.033,19.033,0,0,0,9.54-4,17.714,17.714,0,0,0,1.72-1.509A24.585,24.585,0,0,0,107.3,252.7a18.57,18.57,0,0,0,9.193,2.386c.188,0,.376,0,.566-.008a18.412,18.412,0,0,0,11.1-4.5l.154-.126.149-.133a21.452,21.452,0,0,0,6.7-10.6l.039-.149.034-.152a22.491,22.491,0,0,0,.494-5.384,19.8,19.8,0,0,0-1.49-6.867,28.326,28.326,0,0,0-3.8-6.531q-.615-.814-1.313-1.627.15-.343.3-.692l.045-.11.042-.11a34.992,34.992,0,0,0,1.255-4.163c.556.368,1.123.72,1.716,1.033a23.174,23.174,0,0,0,4.944,1.933q.944.252,1.934.444c-.019.249-.039.5-.057.747l0,.034,0,.034c-.189,2.853-.238,6.021-.145,9.418a58.394,58.394,0,0,0,1.265,10.664l.008.034.007.034a19.924,19.924,0,0,0,12.41,15.109l.057.022.058.02a23.026,23.026,0,0,0,7.951,1.371c.2,0,.4,0,.609-.007a20.4,20.4,0,0,0,8.224-1.742l.1-.046.1-.047a22.325,22.325,0,0,0,6.262-4.6,19.763,19.763,0,0,0,4.927-9.985,50.109,50.109,0,0,0,1.318-8.326l0-.042,0-.042c.2-2.669.245-5.761.15-9.454q-.051-1.981-.237-4.172c.433-.115.862-.241,1.283-.378l.1-.032.1-.034a25.149,25.149,0,0,0,4.37-2.048,18.042,18.042,0,0,0,4.821-4.163,20.057,20.057,0,0,0,3.245-5.762A23.354,23.354,0,0,0,197.6,196.6l0-.127v-.129a19.41,19.41,0,0,0-1.789-8.182" transform="translate(0 0)"/>
        <path id="Trazado_2" data-name="Trazado 2" d="M90.538,7.991c10.115-.027,20.519,1.14,30.528,4.72,19.285,6.9,30.987,20.611,35.9,40.324a73.337,73.337,0,0,1,2.08,17.527c0,.918-.156,1.152-1.154.955q-17.718-3.5-35.681-5.4A361.288,361.288,0,0,0,74.39,64.183c-17.924.5-35.714,2.222-53.228,6.259-1.617.374-1.685.382-1.678-1.169.065-14.907,3.75-28.619,13.574-40.214C40.139,20.7,49.245,15.434,59.59,12.186c9.921-3.114,20.131-4.21,30.948-4.2" transform="translate(6.884 2.823)" fill="#ff8dc0"/>
        <path id="Trazado_3" data-name="Trazado 3" d="M149.813,8.323a7.875,7.875,0,0,1,1.035,1.985,17.605,17.605,0,0,1,1.131,7.489c-.169,5.794-1.638,11.337-3.366,16.816A204.957,204.957,0,0,1,136.17,64.287c-.085.171-.2.329-.434.725-.387-3.1-.727-5.953-1.31-8.77-2.471-11.92-7.376-22.616-15.9-31.47A58.791,58.791,0,0,0,98.2,11.223a1.99,1.99,0,0,1-1.129-.646c10.7-3.068,21.406-5.695,32.449-6.561,4.758-.374,9.54-.421,14.207.9a12.281,12.281,0,0,1,5.033,2.562" transform="translate(34.297 1.339)" fill="#ff8dc0"/>
        <path id="Trazado_4" data-name="Trazado 4" d="M6.031,8.921A7.873,7.873,0,0,0,5,10.906,17.6,17.6,0,0,0,3.865,18.4C4.034,24.189,5.5,29.732,7.23,35.212A204.955,204.955,0,0,0,19.674,64.885c.085.171.2.329.434.725.387-3.1.727-5.953,1.31-8.77,2.471-11.92,7.376-22.616,15.9-31.47a58.791,58.791,0,0,1,20.328-13.55,1.99,1.99,0,0,0,1.129-.646C48.073,8.107,37.37,5.481,26.327,4.614c-4.758-.374-9.54-.421-14.207.9A12.281,12.281,0,0,0,7.087,8.08" transform="translate(1.36 1.55)" fill="#ff8dc0"/>
        <path id="Trazado_5" data-name="Trazado 5" d="M131.921,84.672c.152,5.8-4.277,11.184-10.426,12.64-.823.195-1.669.292-2.5.444-.632.115-.9.051-.627-.728a61.181,61.181,0,0,0,2.82-11.258c.111-.734.48-1,1.2-1.054a4.882,4.882,0,0,1,3.111.789c.44.281.824.65,1.249.955.606.437,1.26,1.217,2.008.59.686-.574.229-1.439-.062-2.138a5.2,5.2,0,0,0-5.817-3.326c-1.065.175-1.119-.181-1-1.019a54.241,54.241,0,0,0,.474-6.526c.014-.7.235-.8.869-.621a12.443,12.443,0,0,1,8.706,11.253" transform="translate(41.784 25.914)" fill="#f7d5c9"/>
        <path id="Trazado_6" data-name="Trazado 6" d="M21.547,72.3a75.769,75.769,0,0,0,.5,8.043c.081.625-.088.805-.744.859a5.465,5.465,0,0,0-4.7,4.113c-.129.517-.265,1.087.258,1.441s1.026.037,1.445-.277a9.764,9.764,0,0,1,3.289-1.991c.618-.161.913-.142,1.038.637A62.428,62.428,0,0,0,25.121,95.6c.212.623.091.827-.572.7-4.789-.939-8.468-3.4-10.431-7.962a10.954,10.954,0,0,1,1.456-11.759A13.535,13.535,0,0,1,21.547,72.3" transform="translate(4.609 25.547)" fill="#f7d5c9"/>
        <path id="Trazado_7" data-name="Trazado 7" d="M34.854,76.4S33.9,104.438,38.29,108.42s13.915,9.136,50.321,8.523,38.582-7.56,40.019-9.385,4.2-29.883,2.88-31.156-18.634.4-23-.624S91.353,58.8,90.171,56.864s-2.876,19.958-7.545,21.7-12.149,3.984-14.2,3.984-6.152-25.8-6.152-25.8-3.884,25.739-3.634,27.3S41.4,89.072,40.513,86.868,34.854,76.4,34.854,76.4" transform="translate(12.284 20.049)" fill="#f7d5c9"/>
        <path id="Trazado_8" data-name="Trazado 8" d="M108.4,87.821c0,3.684-4.535,6.669-10.128,6.669S88.144,91.5,88.144,87.821s4.534-6.669,10.128-6.669S108.4,84.137,108.4,87.821" transform="translate(31.144 28.673)" fill="#f68180"/>
        <path id="Trazado_9" data-name="Trazado 9" d="M58.291,87.821c0,3.684-4.535,6.669-10.128,6.669S38.034,91.5,38.034,87.821s4.534-6.669,10.128-6.669,10.128,2.985,10.128,6.669" transform="translate(13.439 28.673)" fill="#f68180"/>
        <path id="Trazado_10" data-name="Trazado 10" d="M88.209,84.43a25.447,25.447,0,0,1-5.695.323c-3.3-.138-5.312-.916-4.206-1.647,1.246-.826,2.6-1.642,3.911-2.463a72.685,72.685,0,0,0,6.5-4.148c.6-.491,2.805-.854,5.224-.891a16.024,16.024,0,0,1,5.99.774q6.443,3.142,12.855,6.286c1.491.734.264,1.463-2.877,1.763-3.164.3-6.362.016-7.922-.725-2-.951-3.945-1.908-5.933-2.862a2.2,2.2,0,0,0-.978-.353c-1.758,1.079-3.524,2.15-5.237,3.225a6.767,6.767,0,0,1-1.629.717" transform="translate(27.561 26.712)" fill="#1d1d1b"/>
        <path id="Trazado_11" data-name="Trazado 11" d="M49.291,84.407a25.447,25.447,0,0,1-5.695.323c-3.3-.138-5.312-.916-4.206-1.647,1.246-.826,2.2-1.418,3.509-2.238a39.426,39.426,0,0,0,8.538-1.558c.939-.313,5.3-.25,5.8-3.616,2.567-.039,2.726.172,3.779.685q6.443,3.142,12.855,6.286c1.491.734.264,1.463-2.877,1.763-3.164.3-6.362.016-7.922-.725-2-.951-3.945-1.908-5.933-2.862a2.2,2.2,0,0,0-.978-.353c-1.758,1.079-3.524,2.15-5.237,3.225a6.767,6.767,0,0,1-1.629.717" transform="translate(13.81 26.735)" fill="#1d1d1b"/>
        <path id="Trazado_12" data-name="Trazado 12" d="M42.608,123.627q.053,3.315-.053,5.842-.156,2.948-.421,5.474a14.537,14.537,0,0,1-1.315,4.632,9.17,9.17,0,0,1-1.053,1.711,7.911,7.911,0,0,1-1.5,1.474,6.767,6.767,0,0,1-1.973,1.027,8.042,8.042,0,0,1-2.527.368,6.774,6.774,0,0,1-4.9-1.922,8.469,8.469,0,0,1-1.5-1.947,16.337,16.337,0,0,1-1.026-2.184,21.622,21.622,0,0,1-1.158-5.949H23.238a20.946,20.946,0,0,1-1.37,5.949,17.029,17.029,0,0,1-1.133,2.184,8.558,8.558,0,0,1-1.552,1.895,7.521,7.521,0,0,1-2.106,1.342,6.783,6.783,0,0,1-2.736.526,7.74,7.74,0,0,1-3.9-1.1,12.053,12.053,0,0,1-1.5-1.158,7.234,7.234,0,0,1-1.4-1.763A12.006,12.006,0,0,1,6.472,137.5a15.877,15.877,0,0,1-.606-3.394q-.422-4.582-.394-8.081t.184-5.974q.209-2.9.579-5a15.183,15.183,0,0,1,1.421-4.421,10.151,10.151,0,0,1,1.026-1.632,7.727,7.727,0,0,1,1.422-1.421,6.659,6.659,0,0,1,1.842-1,6.756,6.756,0,0,1,2.29-.368,7.779,7.779,0,0,1,3,.526,7.857,7.857,0,0,1,2.211,1.368A7.452,7.452,0,0,1,21,110.018a16.535,16.535,0,0,1,1.027,2.186,17.674,17.674,0,0,1,.947,6h2a18.473,18.473,0,0,1,1-6,12.272,12.272,0,0,1,1-2.211,7.678,7.678,0,0,1,1.579-1.947,7.468,7.468,0,0,1,5.212-1.895,7.752,7.752,0,0,1,3.737,1.315,10.409,10.409,0,0,1,2.816,3.132,14.669,14.669,0,0,1,1.816,5.975q.42,3.737.474,7.055m38.221,8.448a15.387,15.387,0,0,1-.264,4.264,9.391,9.391,0,0,1-.5,1.711,8.169,8.169,0,0,1-.869,1.632,6.315,6.315,0,0,1-1.29,1.368,6.166,6.166,0,0,1-1.816.974,10.84,10.84,0,0,1-2.632.525,10.721,10.721,0,0,1-2.552-.1,7.845,7.845,0,0,1-2.763-1,8.988,8.988,0,0,1-2.5-2.107,13.272,13.272,0,0,1-1.552-2.367,10.455,10.455,0,0,1-.816-2.107,12.67,12.67,0,0,1-.29-1.368,13.387,13.387,0,0,1-.29,1.368,10.536,10.536,0,0,1-.816,2.107,13.358,13.358,0,0,1-1.554,2.367,8.982,8.982,0,0,1-2.5,2.107,7.855,7.855,0,0,1-2.764,1,10.721,10.721,0,0,1-2.552.1,10.84,10.84,0,0,1-2.632-.525,6.149,6.149,0,0,1-1.816-.974,5.76,5.76,0,0,1-1.263-1.368,8.99,8.99,0,0,1-.843-1.632,9.4,9.4,0,0,1-.5-1.711,16.81,16.81,0,0,1-.315-4.264,40.235,40.235,0,0,1,.842-6.87,37.442,37.442,0,0,1,1.712-5.738,34.191,34.191,0,0,1,2.237-4.685q1.21-2.079,2.368-3.764a14.938,14.938,0,0,1,6.922-5.764,9.438,9.438,0,0,1,2.579-.685q1.025-.079,1.184-.078t1.184.078a9.45,9.45,0,0,1,2.579.685,15.976,15.976,0,0,1,3.4,1.922,15.333,15.333,0,0,1,3.58,3.842q1.157,1.685,2.343,3.764a36.584,36.584,0,0,1,2.21,4.685,37.592,37.592,0,0,1,1.712,5.738,40.371,40.371,0,0,1,.842,6.87m-15.581-6.791a2.452,2.452,0,0,0-.528-1.527,1.811,1.811,0,0,0-1.525-.683,2.088,2.088,0,0,0-1.554.683,1.8,1.8,0,0,0-.552,1.527,2.081,2.081,0,0,0,.658,1.528,2.326,2.326,0,0,0,1.448.421,2.112,2.112,0,0,0,1.474-.526,1.83,1.83,0,0,0,.579-1.422m51.483-7.078a15.75,15.75,0,0,1-.526,5.026,11.643,11.643,0,0,1-1.736,3.632,9.936,9.936,0,0,1-2.554,2.448,13.432,13.432,0,0,1-2.975,1.474,19.568,19.568,0,0,1-8.158,1,16.506,16.506,0,0,1,.421,3.421,9.4,9.4,0,0,1-.317,2.579,6.154,6.154,0,0,1-2,3.159,6.888,6.888,0,0,1-3.631,1.474,8.856,8.856,0,0,1-5.16-.789,10.723,10.723,0,0,1-3.263-2.579,13.036,13.036,0,0,1-2.211-4,31.653,31.653,0,0,1-1.342-7.843,41.689,41.689,0,0,1,.237-6.633,37.946,37.946,0,0,1,1.317-6.263,13.17,13.17,0,0,1,1.763-3.554,15.112,15.112,0,0,1,2.316-2.579,11.57,11.57,0,0,1,2.607-1.736,20.867,20.867,0,0,1,2.684-1.08,18.554,18.554,0,0,1,6.581-.736,22.047,22.047,0,0,1,5.185.736,16.477,16.477,0,0,1,3.895,1.606,12.91,12.91,0,0,1,2.816,2.184,15.5,15.5,0,0,1,1.947,2.473,15.661,15.661,0,0,1,2.106,6.581m-14,1.158a2.456,2.456,0,0,0-.526-1.527,1.813,1.813,0,0,0-1.527-.686,2.086,2.086,0,0,0-1.554.686,1.8,1.8,0,0,0-.552,1.527,2.071,2.071,0,0,0,.658,1.525,2.318,2.318,0,0,0,1.448.421,2.106,2.106,0,0,0,1.474-.526,1.821,1.821,0,0,0,.579-1.42m48.912-1.623a15.712,15.712,0,0,1-.526,5.026,11.643,11.643,0,0,1-1.736,3.632,9.936,9.936,0,0,1-2.554,2.448,13.367,13.367,0,0,1-2.975,1.472,19.545,19.545,0,0,1-8.158,1,16.5,16.5,0,0,1,.421,3.421,9.4,9.4,0,0,1-.317,2.579,6.154,6.154,0,0,1-2,3.159,6.888,6.888,0,0,1-3.631,1.474,8.867,8.867,0,0,1-5.16-.789,10.746,10.746,0,0,1-3.263-2.581,13.013,13.013,0,0,1-2.211-4,31.664,31.664,0,0,1-1.342-7.843,41.69,41.69,0,0,1,.237-6.633,37.965,37.965,0,0,1,1.317-6.265,13.161,13.161,0,0,1,1.763-3.552,15.009,15.009,0,0,1,2.316-2.579,11.653,11.653,0,0,1,2.607-1.738,21.053,21.053,0,0,1,2.684-1.079,18.523,18.523,0,0,1,6.581-.738,22.115,22.115,0,0,1,5.185.738,16.534,16.534,0,0,1,3.895,1.605,12.955,12.955,0,0,1,2.816,2.186,15.365,15.365,0,0,1,1.947,2.473,15.655,15.655,0,0,1,2.106,6.581m-14,1.157a2.444,2.444,0,0,0-.526-1.525,1.81,1.81,0,0,0-1.527-.686,2.081,2.081,0,0,0-1.554.686,1.8,1.8,0,0,0-.552,1.525,2.072,2.072,0,0,0,.658,1.527,2.318,2.318,0,0,0,1.448.421,2.106,2.106,0,0,0,1.474-.526,1.822,1.822,0,0,0,.579-1.421m52.871-9.088a9.948,9.948,0,0,0-.71-1.685,5.705,5.705,0,0,0-1.237-1.552,7.442,7.442,0,0,0-1.973-1.237,10.243,10.243,0,0,0-2.87-.738,7.359,7.359,0,0,0-4.052.632,9.968,9.968,0,0,0-3.4,2.711,15.4,15.4,0,0,0-2.816,5.975,16.328,16.328,0,0,0-2.527-5.053,12.8,12.8,0,0,0-1.606-1.816,10.477,10.477,0,0,0-2.106-1.528,10.9,10.9,0,0,0-2.658-1.024,10.531,10.531,0,0,0-3.21-.264A9.5,9.5,0,0,0,157.3,105.7a6.818,6.818,0,0,0-1.4,1.21,7.072,7.072,0,0,0-1.131,1.763,8.884,8.884,0,0,0-.685,2.37,10.151,10.151,0,0,0,.053,3.08,10.864,10.864,0,0,0,.763,2.763,12.691,12.691,0,0,0,1.341,2.394,16.139,16.139,0,0,0,1.712,2.027,19.883,19.883,0,0,0,1.869,1.658,21.9,21.9,0,0,0,4.895,2.895,26.593,26.593,0,0,0-.579,5.423q0,1.106.106,2.343a14.409,14.409,0,0,0,.421,2.448,11.767,11.767,0,0,0,.869,2.316,9.428,9.428,0,0,0,1.394,2.053,6.348,6.348,0,0,0,1.581,1.211,8.9,8.9,0,0,0,2.026.842,10.364,10.364,0,0,0,2.922.368,8.4,8.4,0,0,0,3.578-.712,7.118,7.118,0,0,0,2.738-2.394,14.051,14.051,0,0,0,1.632-3.842,21.668,21.668,0,0,0,.579-4.474,17.572,17.572,0,0,0-.947-5.949,19.968,19.968,0,0,0,4.106-2.736,20.355,20.355,0,0,0,3.21-3.5,13.6,13.6,0,0,0,2.264-5.026,10.332,10.332,0,0,0-.106-4.421" transform="translate(1.933 36.789)" fill="#ff8dc0"/>
        <path id="Trazado_13" data-name="Trazado 13" d="M59.118,200.921a19.568,19.568,0,0,1-4.738.947,19.326,19.326,0,0,1-4.6-.189,14.109,14.109,0,0,1-4.976-1.8,16.138,16.138,0,0,1-4.5-3.793,23.818,23.818,0,0,1-2.8-4.263,18.859,18.859,0,0,1-1.468-3.793,23.034,23.034,0,0,1-.521-2.463A23.849,23.849,0,0,1,35,188.029a18.94,18.94,0,0,1-1.468,3.793,24.041,24.041,0,0,1-2.8,4.263,16.177,16.177,0,0,1-4.5,3.793,14.147,14.147,0,0,1-4.976,1.8,19.331,19.331,0,0,1-4.6.189,19.579,19.579,0,0,1-4.739-.947,11.046,11.046,0,0,1-3.27-1.754A10.359,10.359,0,0,1,6.373,196.7a16.07,16.07,0,0,1-1.518-2.937,17,17,0,0,1-.9-3.08,30.267,30.267,0,0,1-.568-7.677A72.322,72.322,0,0,1,4.9,170.64,67.723,67.723,0,0,1,7.983,160.3a61.758,61.758,0,0,1,4.028-8.434q2.178-3.743,4.266-6.776a26.894,26.894,0,0,1,12.464-10.381,17.109,17.109,0,0,1,4.645-1.23q1.847-.142,2.133-.142t2.131.142a17.134,17.134,0,0,1,4.645,1.23,28.981,28.981,0,0,1,6.114,3.46,27.6,27.6,0,0,1,6.445,6.921q2.083,3.035,4.217,6.776a65.515,65.515,0,0,1,3.982,8.434,67.574,67.574,0,0,1,3.08,10.335,72.317,72.317,0,0,1,1.517,12.368,27.8,27.8,0,0,1-.474,7.677,17.112,17.112,0,0,1-.9,3.08,14.723,14.723,0,0,1-1.564,2.937,11.381,11.381,0,0,1-2.322,2.464,11.088,11.088,0,0,1-3.271,1.754M35.9,166.8a3.753,3.753,0,0,0-2.8,1.233,3.242,3.242,0,0,0-1,2.749,3.749,3.749,0,0,0,1.186,2.75,4.2,4.2,0,0,0,2.607.757,3.8,3.8,0,0,0,2.653-.947,3.287,3.287,0,0,0,1.045-2.559,4.405,4.405,0,0,0-.95-2.749A3.261,3.261,0,0,0,35.9,166.8" transform="translate(1.183 47.113)" fill="#ff8dc0"/>
        <path id="Trazado_14" data-name="Trazado 14" d="M107.448,151.746a26.452,26.452,0,0,1,.284,9.1,35.981,35.981,0,0,1-1.705,6.73,22.8,22.8,0,0,1-3.224,5.593,37.265,37.265,0,0,1,5.45,5.639,22.4,22.4,0,0,1,2.985,5.071,12.761,12.761,0,0,1,1,4.406,15.66,15.66,0,0,1-.332,3.745,14.648,14.648,0,0,1-4.645,7.2A10.727,10.727,0,0,1,94.415,200.7a18.629,18.629,0,0,1-5.071-4.217,45.871,45.871,0,0,1-3.933-5.26,40.9,40.9,0,0,1-2.608-4.643q-.948-2.04-1.042-2.322a21.792,21.792,0,0,1,.237,5.45,18.771,18.771,0,0,1-.853,4.217A10.528,10.528,0,0,1,79.534,197a11.316,11.316,0,0,1-2.133,2.133,12.007,12.007,0,0,1-6.16,2.558,12.309,12.309,0,0,1-7.867-1.091,16.333,16.333,0,0,1-4.929-4.028,17.257,17.257,0,0,1-3.222-6.254,67.115,67.115,0,0,1-2.843-15.214,82.072,82.072,0,0,1,.095-11.991,52.8,52.8,0,0,1,2.084-10.71,24.2,24.2,0,0,1,2.654-6.73,24.506,24.506,0,0,1,3.839-4.927,21.508,21.508,0,0,1,4.5-3.413,26.988,26.988,0,0,1,4.643-2.083,31.694,31.694,0,0,1,11.564-1.517,31.815,31.815,0,0,1,7.488.805,28.811,28.811,0,0,1,5.924,2.087,24.222,24.222,0,0,1,4.55,2.842,19.961,19.961,0,0,1,3.27,3.271,23.6,23.6,0,0,1,4.455,9m-24.115,6.541a3.755,3.755,0,0,0-2.8,1.233,3.247,3.247,0,0,0-1,2.747,3.749,3.749,0,0,0,1.186,2.75,4.19,4.19,0,0,0,2.607.758,3.793,3.793,0,0,0,2.654-.947,3.294,3.294,0,0,0,1.043-2.56,4.408,4.408,0,0,0-.949-2.747,3.262,3.262,0,0,0-2.749-1.233" transform="translate(18.447 47.24)" fill="#ff8dc0"/>
        <path id="Trazado_15" data-name="Trazado 15" d="M114.537,162.18a29.484,29.484,0,0,1-9.667-.758,16.394,16.394,0,0,1-3.508-1.375,12.68,12.68,0,0,1-3.08-2.275,9.931,9.931,0,0,1-2.18-3.364,12.588,12.588,0,0,1-.807-4.738,13,13,0,0,1,1.943-7.537,14.362,14.362,0,0,1,4.313-4.218,16.837,16.837,0,0,1,6.255-2.274,84.579,84.579,0,0,1,14.786-1.849q7.2-.235,12.985.143a116.8,116.8,0,0,1,12.8,1.421,14.374,14.374,0,0,1,6.588,2.937,14.015,14.015,0,0,1,3.27,4.078,12.283,12.283,0,0,1,1.138,5.212,16.656,16.656,0,0,1-.9,5.214,12.94,12.94,0,0,1-2.085,3.743,10.79,10.79,0,0,1-2.889,2.512,18.507,18.507,0,0,1-3.224,1.517,22.169,22.169,0,0,1-8.625.853,90.648,90.648,0,0,1,1.374,12.748q.142,5.546-.142,9.431a45.676,45.676,0,0,1-1.232,7.772,13.386,13.386,0,0,1-3.08,6.73,15.5,15.5,0,0,1-4.313,3.222,13.39,13.39,0,0,1-5.5,1.137,16.445,16.445,0,0,1-6.162-.947,13.742,13.742,0,0,1-4.739-3.222,13.928,13.928,0,0,1-3.317-6.92,54.394,54.394,0,0,1-1.184-10q-.142-5.162.142-9.433.376-5.02,1.042-9.762" transform="translate(33.671 47.241)" fill="#ff8dc0"/>
        <path id="Trazado_16" data-name="Trazado 16" d="M11.669,107.016s6.19.122,6.675,8.334" transform="translate(4.123 37.812)" fill="none" stroke="#fff" stroke-linecap="round" stroke-miterlimit="10" stroke-width="1"/>
        <path id="Trazado_17" data-name="Trazado 17" d="M25.947,107.016s6.19.122,6.675,8.334" transform="translate(9.168 37.812)" fill="none" stroke="#fff" stroke-linecap="round" stroke-miterlimit="10" stroke-width="1"/>
        <path id="Trazado_18" data-name="Trazado 18" d="M77.337,106.713a11.135,11.135,0,0,1,9.588,6.537" transform="translate(27.326 37.705)" fill="none" stroke="#fff" stroke-linecap="round" stroke-miterlimit="10" stroke-width="1"/>
        <path id="Trazado_19" data-name="Trazado 19" d="M131.674,136.874a11.438,11.438,0,0,1,9.85,6.715" transform="translate(46.524 48.362)" fill="none" stroke="#fff" stroke-linecap="round" stroke-miterlimit="10" stroke-width="2"/>
        <path id="Trazado_20" data-name="Trazado 20" d="M89.1,166.661a18.861,18.861,0,0,1,7.441,10.456" transform="translate(31.482 58.886)" fill="none" stroke="#fff" stroke-linecap="round" stroke-miterlimit="10" stroke-width="2"/>
        <path id="Trazado_21" data-name="Trazado 21" d="M103.9,105.991s5.685.195,8.73,6.824" transform="translate(36.711 37.45)" fill="none" stroke="#fff" stroke-linecap="round" stroke-miterlimit="10" stroke-width="1"/>
        <path id="Trazado_22" data-name="Trazado 22" d="M121.7,105.871s5.2-.554,8.212,7.16" transform="translate(43 37.404)" fill="none" stroke="#fff" stroke-linecap="round" stroke-miterlimit="10" stroke-width="1"/>
        <path id="Trazado_23" data-name="Trazado 23" d="M136.8,105.62s5.34,0,5.34,6.918" transform="translate(48.335 37.319)" fill="none" stroke="#fff" stroke-linecap="round" stroke-miterlimit="10" stroke-width="1"/>
        <path id="Trazado_24" data-name="Trazado 24" d="M49.01,106.049s5.454.89,8.549,8.334" transform="translate(17.317 37.47)" fill="none" stroke="#fff" stroke-linecap="round" stroke-miterlimit="10" stroke-width="1"/>
        <path id="Trazado_25" data-name="Trazado 25" d="M29.457,136.755s10.905,1.78,17.093,16.661" transform="translate(10.408 48.32)" fill="none" stroke="#fff" stroke-linecap="round" stroke-miterlimit="10" stroke-width="2"/>
        <path id="Trazado_26" data-name="Trazado 26" d="M77.538,136.874s12.766.757,16.894,15.78" transform="translate(27.397 48.362)" fill="none" stroke="#fff" stroke-linecap="round" stroke-miterlimit="10" stroke-width="2"/>
        <line id="Línea_1" data-name="Línea 1" x2="65.486" transform="translate(8.12 270.596)" fill="#4f4f4f"/>
        <line id="Línea_2" data-name="Línea 2" x2="65.486" transform="translate(8.12 270.596)" fill="none" stroke="#000" stroke-linecap="round" stroke-miterlimit="10" stroke-width="1.5"/>
        <path id="Trazado_27" data-name="Trazado 27" d="M68.71,196.871c-.05.146-.18.227-.425.26-.67,3.871-1.927,8-3.9,10.5a7.776,7.776,0,0,0-1.095-.555c1.961-2.383,3.2-6.384,3.773-10.564Zm5.143-.524a47.73,47.73,0,0,1,4.458,10.728l-1.192.474a49.511,49.511,0,0,0-4.377-10.728Z" transform="translate(22.361 69.375)" fill="#000"/>
        <path id="Trazado_28" data-name="Trazado 28" d="M76.88,198.362a17.644,17.644,0,0,1,1.225,3.511l-.915.245A18.313,18.313,0,0,0,76,198.639Zm9.748.114c-.032.148-.195.18-.342.164-1.273,4.768-3.674,7.691-7.626,9.292a4.359,4.359,0,0,0-.636-.752c3.9-1.535,6.139-4.213,7.331-9.078Zm-5.78-.9a22.342,22.342,0,0,1,.767,3.707l-.964.179a19.663,19.663,0,0,0-.767-3.673Z" transform="translate(26.853 69.81)" fill="#000"/>
        <path id="Trazado_29" data-name="Trazado 29" d="M94.633,207.49a28.626,28.626,0,0,0,3.429-.244c.016.359.032.815.065,1.175-1.077.131-2.711.18-3.379.18H90.665c-2.466,0-3.657-1.061-3.657-3.4v-9.536l1.6.1c-.032.162-.146.261-.44.31v5.306a53.678,53.678,0,0,0,8.1-3.233l.832,1.127a.339.339,0,0,1-.179.047.679.679,0,0,1-.245-.047,61.815,61.815,0,0,1-8.507,3.217v2.726c0,1.666.8,2.27,2.481,2.27Zm3.4-13.014a1.829,1.829,0,1,1-1.846,1.83,1.826,1.826,0,0,1,1.846-1.83m1.273,1.83a1.282,1.282,0,1,0-1.273,1.306,1.292,1.292,0,0,0,1.273-1.306" transform="translate(30.743 68.714)" fill="#000"/>
        <path id="Trazado_30" data-name="Trazado 30" d="M97.425,199.545H111.06V200.7H98.046a.754.754,0,0,1-.522.31Z" transform="translate(34.423 70.505)" fill="#000"/>
        <path id="Trazado_31" data-name="Trazado 31" d="M122.5,196.16a.407.407,0,0,1-.214.148,13.974,13.974,0,0,1-3.869,5.225,7.224,7.224,0,0,0-1-.669,9.859,9.859,0,0,0,3.249-4.051H108.977V195.7H121.29l.179-.081Zm-6.369,2.973c-.016.13-.164.244-.376.277-.472,3.853-1.8,7.527-5.159,9.471a7.938,7.938,0,0,0-.964-.752c3.331-1.828,4.523-5.24,4.915-9.176Z" transform="translate(38.505 69.12)" fill="#000"/>
        <path id="Trazado_32" data-name="Trazado 32" d="M120.119,199.545h13.635V200.7H120.74a.754.754,0,0,1-.522.31Z" transform="translate(42.442 70.505)" fill="#000"/>
        <path id="Trazado_33" data-name="Trazado 33" d="M140.7,203.61a59.63,59.63,0,0,0-5.731-2.662v8.165h-1.225V194.924l1.65.1c-.016.18-.148.294-.425.342v4.769l.245-.344a56.437,56.437,0,0,1,6.14,2.727Z" transform="translate(47.257 68.873)" fill="#000"/>
      </g>
    </g>
  </g>
</svg>
